<svg width="28" height="21" viewBox="0 0 28 21" fill="none" xmlns="http://www.w3.org/2000/svg">
<path d="M20.3636 0C21.7382 0 23.0194 0.347876 24.2073 1.04364C25.3612 1.72243 26.2776 2.63878 26.9564 3.79273C27.6521 4.98061 28 6.26181 28 7.63636V12.7273C28 14.1018 27.6521 15.383 26.9564 16.5709C26.2776 17.7249 25.3612 18.6412 24.2073 19.32C23.0194 20.0158 21.7382 20.3636 20.3636 20.3636H7.63636C6.26181 20.3636 4.98061 20.0158 3.79273 19.32C2.63878 18.6412 1.72243 17.7249 1.04364 16.5709C0.347876 15.383 0 14.1018 0 12.7273V7.63636C0 6.26181 0.347876 4.98061 1.04364 3.79273C1.72243 2.63878 2.63878 1.72243 3.79273 1.04364C4.98061 0.347876 6.26181 0 7.63636 0H20.3636ZM11.4545 6.36364H8.90909V8.90909H6.36364V11.4545H8.90909V14H11.4545V11.4545H14V8.90909H11.4545V6.36364ZM21.6364 11.4545H19.0909V14H21.6364V11.4545ZM19.0909 6.36364H16.5455V8.90909H19.0909V6.36364Z" fill="#A9AFB1" fill-opacity="0.6"/>
</svg>
