<svg width="40" height="40" viewBox="0 0 40 40" fill="none" xmlns="http://www.w3.org/2000/svg">
<path d="M38.1193 28.47H30.9978C32.8083 26.1221 33.8947 23.192 33.8947 20.0019C33.8947 16.8119 32.8044 13.8702 30.99 11.5223H38.1154C39.3225 14.0953 40 16.971 40 20.0019C40 23.0329 39.3225 25.9008 38.1193 28.47ZM19.9981 28.47C15.3178 28.47 11.5215 24.6745 11.5215 19.9981C11.5215 15.3216 15.3178 11.5223 19.9981 11.5223C24.6783 11.5223 28.4746 15.3177 28.4746 19.9981C28.4746 24.6784 24.6822 28.47 19.9981 28.47ZM6.09754 20.0019C6.09754 27.6783 12.3197 33.8993 19.9981 33.8993C22.0578 33.8993 24.0047 33.4375 25.7646 32.6341V39.154C23.9385 39.7012 22.0072 40 20.0019 40C8.95551 40 0 31.0469 0 20.0019C0 8.95702 8.95162 0 19.9981 0C22.0033 0 23.9346 0.298826 25.7607 0.846027V7.36587C24.0008 6.56253 22.0539 6.10071 19.9942 6.10071C12.3197 6.10071 6.09364 12.3217 6.09364 19.9981L6.09754 20.0019Z" fill="url(#paint0_radial_167_825)"/>
<defs>
<radialGradient id="paint0_radial_167_825" cx="0" cy="0" r="1" gradientUnits="userSpaceOnUse" gradientTransform="translate(3.71429 40) rotate(-42.3736) scale(40.6083 162.104)">
<stop stop-color="#9EF2EB"/>
<stop offset="0.49499" stop-color="#A49AE3"/>
<stop offset="1" stop-color="#EDDABF"/>
</radialGradient>
</defs>
</svg>
