<svg width="25" height="24" viewBox="0 0 25 24" fill="none" xmlns="http://www.w3.org/2000/svg">
<path d="M8.84495 3.19266L11.7294 0.330275C11.9349 0.110091 12.1917 0 12.5 0C12.8083 0 13.0651 0.110091 13.2706 0.330275L16.155 3.19266H20.2064C20.5147 3.19266 20.7752 3.29908 20.9881 3.51193C21.2009 3.72477 21.3073 3.98532 21.3073 4.29358V8.34495L24.1697 11.2294C24.3899 11.4349 24.5 11.6917 24.5 12C24.5 12.3083 24.3899 12.5651 24.1697 12.7706L21.3073 15.655V19.7064C21.3073 20.0147 21.2009 20.2752 20.9881 20.4881C20.7752 20.7009 20.5147 20.8073 20.2064 20.8073H16.155L13.2706 23.6697C13.0651 23.8899 12.8083 24 12.5 24C12.1917 24 11.9349 23.8899 11.7294 23.6697L8.84495 20.8073H4.79358C4.48532 20.8073 4.22477 20.7009 4.01193 20.4881C3.79908 20.2752 3.69266 20.0147 3.69266 19.7064V15.655L0.830275 12.7706C0.610091 12.5651 0.5 12.3083 0.5 12C0.5 11.6917 0.610091 11.4349 0.830275 11.2294L3.69266 8.34495V4.29358C3.69266 3.98532 3.79908 3.72477 4.01193 3.51193C4.22477 3.29908 4.48532 3.19266 4.79358 3.19266H8.84495ZM12.5 15.3028C13.1018 15.3028 13.656 15.156 14.1624 14.8624C14.6688 14.5688 15.0688 14.1688 15.3624 13.6624C15.656 13.156 15.8028 12.6018 15.8028 12C15.8028 11.3982 15.656 10.844 15.3624 10.3376C15.0688 9.83119 14.6688 9.43119 14.1624 9.13761C13.656 8.84403 13.1018 8.69725 12.5 8.69725C11.8982 8.69725 11.344 8.84403 10.8376 9.13761C10.3312 9.43119 9.93119 9.83119 9.63761 10.3376C9.34403 10.844 9.19725 11.3982 9.19725 12C9.19725 12.6018 9.34403 13.156 9.63761 13.6624C9.93119 14.1688 10.3312 14.5688 10.8376 14.8624C11.344 15.156 11.8982 15.3028 12.5 15.3028Z" fill="#A9AFB1" fill-opacity="0.6"/>
</svg>
