<svg width="221" height="121" viewBox="0 0 221 121" fill="none" xmlns="http://www.w3.org/2000/svg">
<path fill-rule="evenodd" clip-rule="evenodd" d="M100.491 4.56656L100.502 4.56384L114.268 55.9402C127.483 52.5246 141.444 52.5277 154.739 55.9524L168.508 4.56524C145.333 -1.52288 123.68 -1.52146 100.502 4.56384L100.501 4.56102L100.491 4.56656ZM40.0884 230.02C57.113 246.881 75.8671 257.712 98.9847 264.028L98.9867 264.02L112.756 212.633C99.5369 208.953 87.4449 201.975 77.7008 192.408L40.0884 230.02ZM191.306 76.5828C181.562 67.0153 169.47 60.0376 156.251 56.3577L170.02 4.9706C193.138 11.2866 211.892 22.1169 228.916 38.9782L191.304 76.5903L191.306 76.5828ZM212.653 112.748C208.969 99.5664 201.994 87.4733 192.413 77.6901L230.025 40.078C246.891 57.1076 257.717 75.8594 264.033 98.9805L212.653 112.748ZM213.043 154.738C216.468 141.442 216.471 127.481 213.056 114.266L264.435 100.499C270.523 123.681 270.52 145.328 264.438 168.509L213.051 154.74L213.043 154.738ZM192.413 191.306C201.981 181.562 208.958 169.47 212.638 156.251L264.025 170.02C257.709 193.137 246.879 211.892 230.018 228.916L192.406 191.304L192.413 191.306ZM156.25 212.652C169.431 208.968 181.525 201.993 191.308 192.412L228.92 230.024C211.892 246.882 193.141 257.709 170.017 264.031L156.25 212.652ZM114.266 213.046C127.562 216.471 141.523 216.474 154.738 213.058L168.505 264.437C145.323 270.525 123.676 270.522 100.495 264.441L114.264 213.053L114.266 213.046ZM38.9727 228.918C22.1143 211.891 11.288 193.139 4.96535 170.016L56.3446 156.249C60.0286 169.43 67.0042 181.523 76.5851 191.306L38.9727 228.918ZM4.56806 168.506L4.56707 168.503L55.9397 154.737C52.5241 141.522 52.5272 127.562 55.9518 114.266L4.56472 100.497C-1.52397 123.674 -1.51995 145.322 4.56707 168.503L4.5605 168.504L4.56806 168.506ZM4.969 98.984C11.285 75.8663 22.1153 57.1123 38.9766 40.0877L76.5887 77.7001C67.0213 87.4442 60.0435 99.5362 56.3637 112.755L4.969 98.984ZM40.088 38.9742C57.1156 22.1158 75.8673 11.2895 98.9905 4.96683L112.758 56.3461C99.5764 60.0301 87.4833 67.0057 77.7001 76.5866L40.088 38.9742Z" fill="url(#paint0_linear_67_600)"/>
<defs>
<linearGradient id="paint0_linear_67_600" x1="66" y1="64" x2="269" y2="224.245" gradientUnits="userSpaceOnUse">
<stop stop-color="#101010" stop-opacity="0.8"/>
<stop offset="0.5" stop-color="#101010"/>
<stop offset="1" stop-color="#101010" stop-opacity="0.8"/>
</linearGradient>
</defs>
</svg>
