<svg width="29" height="24" viewBox="0 0 29 24" fill="none" xmlns="http://www.w3.org/2000/svg">
<path d="M1.96521 10.3376C9.74556 6.94105 14.9291 4.70966 17.516 3.64332C20.0238 2.59672 21.9097 1.8266 23.1735 1.33292C24.4768 0.819497 25.4543 0.464056 26.1059 0.266584C26.6588 0.0888604 27.113 0 27.4684 0C27.6264 0 27.7844 0.0197472 27.9424 0.0592406C28.1793 0.118482 28.3669 0.197469 28.5052 0.296205C28.7026 0.473928 28.831 0.730637 28.8902 1.06634C28.9495 1.40204 28.9593 1.73773 28.9199 2.07343C28.7421 3.9889 28.2978 7.11877 27.5869 11.4631C27.0143 15.0966 26.4515 18.3548 25.8986 21.2379C25.7208 22.166 25.4641 22.867 25.1284 23.3409C24.8322 23.7359 24.4867 23.9531 24.0917 23.9926C23.5388 24.0321 22.9661 23.9136 22.3737 23.6371C22.0183 23.4594 21.4851 23.1139 20.7742 22.6004C20.3793 22.324 20.0732 22.1166 19.856 21.9784C19.0464 21.4452 18.0096 20.7442 16.7458 19.8753C15.5808 19.0855 14.6378 18.4536 13.9171 17.9796C13.1963 17.5057 12.7569 17.0614 12.599 16.6467C12.4805 16.2913 12.5496 15.9062 12.8063 15.4915C12.9643 15.2545 13.3197 14.8794 13.8726 14.3659L14.4947 13.7439L15.6795 12.6183C19.7079 8.86638 21.7616 6.84233 21.8406 6.54613C21.8406 6.48689 21.8356 6.41284 21.8257 6.32397C21.8159 6.23511 21.7813 6.15119 21.7221 6.0722C21.6036 5.99321 21.4209 5.9784 21.1741 6.02777C20.9273 6.07714 17.1704 8.5603 9.9035 13.4773C8.83715 14.208 7.87943 14.5634 7.03031 14.5437C6.22068 14.5239 4.8384 14.1981 2.88344 13.5662L2.29103 13.3588C1.42216 13.1021 0.859376 12.8948 0.602663 12.7368C0.14848 12.4801 -0.0489882 12.1641 0.0102535 11.789C0.0694953 11.315 0.721139 10.8312 1.96521 10.3376Z" fill="white"/>
</svg>
