<svg width="24" height="22" viewBox="0 0 24 22" fill="none" xmlns="http://www.w3.org/2000/svg">
<path d="M0.6 4.8C0.6 5.664 0.815998 6.464 1.248 7.2C1.68 7.936 2.264 8.52 3 8.952C3.736 9.384 4.536 9.6 5.4 9.6C6.264 9.6 7.064 9.384 7.8 8.952C8.536 8.52 9.12 7.936 9.552 7.2C9.984 6.464 10.2 5.664 10.2 4.8C10.2 3.936 9.984 3.136 9.552 2.4C9.12 1.664 8.536 1.08 7.8 0.648C7.064 0.215998 6.264 0 5.4 0C4.536 0 3.736 0.215998 3 0.648C2.264 1.08 1.68 1.664 1.248 2.4C0.815998 3.136 0.6 3.936 0.6 4.8ZM0 21.6V16.2C0 15.224 0.243997 14.324 0.732 13.5C1.22 12.676 1.876 12.02 2.7 11.532C3.524 11.044 4.424 10.8 5.4 10.8C6.376 10.8 7.276 11.044 8.1 11.532C8.924 12.02 9.58 12.676 10.068 13.5C10.556 14.324 10.8 15.224 10.8 16.2V21.6H0ZM18.6 9.6C17.736 9.6 16.936 9.384 16.2 8.952C15.464 8.52 14.88 7.936 14.448 7.2C14.016 6.464 13.8 5.664 13.8 4.8C13.8 3.936 14.016 3.136 14.448 2.4C14.88 1.664 15.464 1.08 16.2 0.648C16.936 0.215998 17.736 0 18.6 0C19.464 0 20.264 0.215998 21 0.648C21.736 1.08 22.32 1.664 22.752 2.4C23.184 3.136 23.4 3.936 23.4 4.8C23.4 5.664 23.184 6.464 22.752 7.2C22.32 7.936 21.736 8.52 21 8.952C20.264 9.384 19.464 9.6 18.6 9.6ZM13.2 21.6V16.2C13.2 15.224 13.444 14.324 13.932 13.5C14.42 12.676 15.076 12.02 15.9 11.532C16.724 11.044 17.624 10.8 18.6 10.8C19.576 10.8 20.476 11.044 21.3 11.532C22.124 12.02 22.78 12.676 23.268 13.5C23.756 14.324 24 15.224 24 16.2V21.6H13.2Z" fill="#E8E8E8"/>
</svg>
