<svg width="64" height="64" viewBox="0 0 64 64" fill="none" xmlns="http://www.w3.org/2000/svg">
<path d="M60.9909 45.552H49.5964C52.4933 41.7953 54.2315 37.1072 54.2315 32.0031C54.2315 26.899 52.4871 22.1923 49.584 18.4356H60.9847C62.916 22.5524 64 27.1536 64 32.0031C64 36.8526 62.916 41.4413 60.9909 45.552ZM31.9969 45.552C24.5085 45.552 18.4343 39.4792 18.4343 31.9969C18.4343 24.5146 24.5085 18.4356 31.9969 18.4356C39.4853 18.4356 45.5594 24.5084 45.5594 31.9969C45.5594 39.4854 39.4915 45.552 31.9969 45.552ZM9.75606 32.0031C9.75606 44.2852 19.7115 54.2389 31.9969 54.2389C35.2925 54.2389 38.4075 53.4999 41.2234 52.2146V62.6464C38.3016 63.5219 35.2115 64 32.0031 64C14.3288 64 0 49.675 0 32.0031C0 14.3312 14.3226 0 31.9969 0C35.2053 0 38.2953 0.478122 41.2172 1.35364V11.7854C38.4012 10.5 35.2863 9.76113 31.9907 9.76113C19.7115 9.76113 9.74983 19.7148 9.74983 31.9969L9.75606 32.0031Z" fill="url(#paint0_radial_36_414)"/>
<defs>
<radialGradient id="paint0_radial_36_414" cx="0" cy="0" r="1" gradientUnits="userSpaceOnUse" gradientTransform="translate(5.94286 64) rotate(-42.3736) scale(64.9732 259.366)">
<stop stop-color="#9EF2EB"/>
<stop offset="0.49499" stop-color="#A49AE3"/>
<stop offset="1" stop-color="#EDDABF"/>
</radialGradient>
</defs>
</svg>
