<svg width="19" height="24" viewBox="0 0 19 24" fill="none" xmlns="http://www.w3.org/2000/svg">
<path d="M15.0538 15.8173V23.4372C15.0538 23.6001 14.9982 23.7334 14.8871 23.8371C14.7761 23.9408 14.6465 23.9926 14.4984 23.9926C14.3947 23.9926 14.2984 23.9704 14.2096 23.9259L9.49992 21.1046L4.79026 23.9259C4.65697 24 4.51627 24.0185 4.36817 23.9815C4.22006 23.9445 4.10899 23.8593 4.03494 23.726C3.97569 23.6371 3.94607 23.5409 3.94607 23.4372V15.8173C2.90935 14.988 2.1022 13.9809 1.5246 12.7961C0.917377 11.5668 0.61377 10.2635 0.61377 8.88615C0.61377 7.27182 1.02105 5.776 1.83561 4.39864C2.62056 3.0509 3.67948 1.98458 5.01241 1.19963C6.38977 0.399872 7.88559 0 9.49992 0C11.1142 0 12.6101 0.399872 13.9874 1.19963C15.3203 1.98458 16.3793 3.0509 17.1642 4.39864C17.9788 5.776 18.3861 7.27182 18.3861 8.88615C18.3861 10.2635 18.0825 11.5668 17.4752 12.7961C16.8976 13.9809 16.0905 14.988 15.0538 15.8173ZM9.49992 15.5508C10.6996 15.5508 11.8177 15.2471 12.8544 14.6399C13.8615 14.0475 14.6613 13.2478 15.2537 12.2407C15.8609 11.2039 16.1645 10.0821 16.1645 8.87504C16.1645 7.668 15.8609 6.54613 15.2537 5.50941C14.6613 4.50231 13.8615 3.70997 12.8544 3.13237C11.8177 2.52514 10.6996 2.22154 9.49992 2.22154C8.30028 2.22154 7.18212 2.52514 6.1454 3.13237C5.13829 3.70997 4.33855 4.50231 3.74614 5.50941C3.13891 6.54613 2.83531 7.668 2.83531 8.87504C2.83531 10.0821 3.13891 11.2039 3.74614 12.2407C4.33855 13.2478 5.13829 14.0475 6.1454 14.6399C7.18212 15.2471 8.30028 15.5508 9.49992 15.5508ZM9.49992 13.3292C8.70016 13.3292 7.95965 13.1293 7.27838 12.7294C6.5971 12.3295 6.05654 11.789 5.65666 11.1077C5.25678 10.4264 5.05684 9.6822 5.05684 8.87504C5.05684 8.06788 5.25678 7.32367 5.65666 6.64239C6.05654 5.96112 6.5971 5.42425 7.27838 5.03178C7.95965 4.63931 8.70016 4.44307 9.49992 4.44307C10.2997 4.44307 11.0402 4.63931 11.7215 5.03178C12.4027 5.42425 12.9433 5.96112 13.3432 6.64239C13.7431 7.32367 13.943 8.06788 13.943 8.87504C13.943 9.6822 13.7431 10.4264 13.3432 11.1077C12.9433 11.789 12.4027 12.3295 11.7215 12.7294C11.0402 13.1293 10.2997 13.3292 9.49992 13.3292Z" fill="#E8E8E8"/>
</svg>
