<svg id="Layer_1" data-name="Layer 1" xmlns="http://www.w3.org/2000/svg" width="24" height="24" viewBox="0 0 24 24">
  <defs>
    <style>
      .cls-1 {
        fill: #FFFFFF;
      }
    </style>
  </defs>
  <path class="cls-1" d="M8.84,3.19,11.73.33a1.06,1.06,0,0,1,1.54,0l2.89,2.86h4.05a1.09,1.09,0,0,1,1.1,1.1V8.34l2.86,2.89a1.06,1.06,0,0,1,0,1.54l-2.86,2.88v4.06a1.09,1.09,0,0,1-1.1,1.1H16.16l-2.89,2.86a1.06,1.06,0,0,1-1.54,0L8.84,20.81h-4a1.09,1.09,0,0,1-1.1-1.1V15.65L.83,12.77a1.06,1.06,0,0,1,0-1.54L3.69,8.34v-4a1.09,1.09,0,0,1,1.1-1.1ZM12.5,15.3A3.28,3.28,0,0,0,15.8,12a3.28,3.28,0,0,0-3.3-3.3A3.28,3.28,0,0,0,9.2,12a3.28,3.28,0,0,0,3.3,3.3Z" transform="translate(-0.5)"/>
</svg>
